<?xml version="1.0" encoding="utf-8"?>
<!-- Generator: Adobe Illustrator 24.0.1, SVG Export Plug-In . SVG Version: 6.00 Build 0)  -->
<svg version="1.1" id="Слой_1" xmlns="http://www.w3.org/2000/svg" xmlns:xlink="http://www.w3.org/1999/xlink" x="0px" y="0px"
	 viewBox="0 0 841.89 595.28" style="enable-background:new 0 0 841.89 595.28;" xml:space="preserve">
<g>
	<path d="M531.86,351.28l-18.19-6.84c-3.51,0.81-21.34,10.3-37.46,3.57c-6.65-2.78-11.92-7.27-15.9-13.26
		c-3.98-5.99-5.96-13.35-5.96-22.08c0-5.62,1.03-11.14,3.08-16.56c2.05-5.42,5.19-9.76,9.4-13.01c3.48-2.7,7-4.76,10.57-6.19
		c3.57-1.42,7.06-2.38,10.46-2.86c3.4-0.48,7.16-0.72,11.26-0.72c6.77,0,12.35,0.51,16.76,1.53c4.4,1.02,9.23,2.36,14.48,4.02v18.2
		c-3.48-2.03-7.16-3.74-11.04-5.1c-3.88-1.37-8.73-2.05-14.54-2.05c-6.7,0-12.05,1.27-16.06,3.8c-4.01,2.53-6.81,5.56-8.38,9.07
		c-1.57,3.51-2.36,6.92-2.36,10.21c0,3.88,0.91,7.46,2.72,10.74c1.81,3.27,4.55,5.9,8.21,7.88s8.08,2.97,13.26,2.97
		c2.96,0,6.1-0.39,9.43-1.17v-9.04l0,0v-15.48h20.25V351.28z"/>
	<path d="M632.39,312.78c0,7.18-1.66,13.78-4.97,19.81c-3.31,6.03-8.24,10.82-14.79,14.37c-6.55,3.55-14.52,5.33-23.91,5.33
		c-9.51,0-17.55-1.85-24.14-5.55c-6.58-3.7-11.48-8.56-14.68-14.59c-3.2-6.03-4.8-12.48-4.8-19.36c0-6.92,1.59-13.38,4.77-19.39
		c3.18-6.01,8.07-10.86,14.68-14.54c6.6-3.68,14.66-5.52,24.16-5.52c7.1,0,13.44,1.05,19,3.16c5.57,2.11,10.14,4.97,13.73,8.57
		c3.59,3.61,6.31,7.8,8.16,12.59C631.47,302.45,632.39,307.49,632.39,312.78z M608.76,312.78c0-2.89-0.43-5.52-1.28-7.91
		c-0.85-2.39-2.14-4.46-3.86-6.21c-1.72-1.76-3.82-3.13-6.3-4.11c-2.48-0.98-5.35-1.47-8.6-1.47c-6.21,0-11.1,1.81-14.65,5.44
		c-3.55,3.63-5.33,8.38-5.33,14.26c0,5.88,1.78,10.64,5.35,14.29c3.57,3.64,8.44,5.46,14.62,5.46c4.25,0,7.88-0.84,10.87-2.52
		c3-1.68,5.27-4.01,6.82-6.99C607.98,320.04,608.76,316.62,608.76,312.78z"/>
	<polygon points="416.73,274.38 416.73,351.28 416.77,351.28 439.92,342.23 439.92,274.38 	"/>
	<polygon points="376.17,274.38 352.43,303.23 328.79,274.38 307.76,274.38 307.76,351.28 307.8,351.28 330.29,342.49 
		330.29,306.73 351.26,332.53 353.09,332.53 374.01,306.73 374.01,351.28 397.2,351.28 397.2,274.38 	"/>
	<polygon points="416.73,258.33 439.92,268.09 439.92,241.12 416.73,241.12 	"/>
	<polygon points="263.65,274.38 238.02,274.38 204.01,351.28 227.76,351.28 233.24,337.87 233.27,337.87 240.93,318.97 
		240.93,318.97 250.95,294.24 262.21,322.32 249.47,322.32 242.93,337.87 268.41,337.87 273.81,351.28 297.55,351.28 	"/>
	<g>
		<path d="M455.78,260.19v-12.85h4.34c1.75,0,3.13,0.26,4.15,0.79c1.02,0.53,1.83,1.3,2.43,2.32c0.6,1.02,0.9,2.13,0.9,3.33
			c0,0.86-0.16,1.68-0.5,2.47c-0.33,0.78-0.8,1.48-1.42,2.07c-0.63,0.61-1.35,1.08-2.18,1.39c-0.48,0.19-0.93,0.32-1.34,0.38
			c-0.4,0.06-1.18,0.1-2.32,0.1H455.78z M459.93,248.98h-2.3v9.57h2.36c0.92,0,1.64-0.06,2.15-0.19c0.51-0.13,0.93-0.28,1.27-0.48
			c0.34-0.19,0.65-0.43,0.94-0.71c0.91-0.92,1.36-2.09,1.36-3.49c0-1.38-0.47-2.51-1.4-3.38c-0.34-0.33-0.74-0.59-1.18-0.8
			c-0.44-0.21-0.87-0.35-1.27-0.41C461.45,249.01,460.81,248.98,459.93,248.98z"/>
		<path d="M470.66,247.34h7.29v1.64h-5.45v3.92h5.27v1.65h-5.27v4h5.63v1.64h-7.47V247.34z"/>
		<path d="M484.03,254.82l-1.4-0.85c-0.88-0.53-1.5-1.06-1.88-1.58c-0.37-0.52-0.56-1.12-0.56-1.79c0-1.01,0.35-1.84,1.05-2.47
			c0.7-0.63,1.62-0.95,2.74-0.95c1.07,0,2.06,0.3,2.96,0.9v2.09c-0.93-0.89-1.92-1.34-2.99-1.34c-0.6,0-1.1,0.14-1.48,0.42
			c-0.39,0.28-0.58,0.64-0.58,1.07c0,0.39,0.14,0.74,0.43,1.08c0.28,0.34,0.74,0.69,1.38,1.06l1.41,0.83
			c1.57,0.94,2.35,2.13,2.35,3.58c0,1.03-0.34,1.87-1.03,2.51c-0.69,0.64-1.59,0.97-2.69,0.97c-1.27,0-2.43-0.39-3.47-1.17v-2.34
			c0.99,1.26,2.14,1.89,3.45,1.89c0.57,0,1.06-0.16,1.44-0.48c0.38-0.32,0.58-0.72,0.58-1.2
			C485.72,256.26,485.16,255.52,484.03,254.82z"/>
		<path d="M490.25,247.34h1.84v12.86h-1.84V247.34z"/>
		<path d="M502.65,253.87h4.32v5.45c-1.59,0.69-3.15,1.03-4.71,1.03c-2.13,0-3.83-0.62-5.11-1.86c-1.27-1.24-1.91-2.77-1.91-4.6
			c0-1.92,0.66-3.52,1.98-4.8s2.97-1.92,4.96-1.92c0.72,0,1.41,0.08,2.06,0.23c0.65,0.16,1.47,0.44,2.47,0.86v1.88
			c-1.53-0.89-3.06-1.34-4.57-1.34c-1.4,0-2.59,0.48-3.55,1.44s-1.45,2.13-1.45,3.53c0,1.46,0.48,2.65,1.45,3.58
			c0.96,0.93,2.2,1.39,3.72,1.39c0.74,0,1.62-0.17,2.64-0.51l0.18-0.06v-2.68h-2.48V253.87z"/>
		<path d="M520.63,247.34h1.75v12.86h-1.58l-8.6-9.91v9.91h-1.73v-12.86h1.49l8.67,9.99V247.34z"/>
		<path d="M536.24,260.21h-4.35v-12.86h3.37c1.06,0,1.89,0.14,2.49,0.43c0.59,0.29,1.05,0.68,1.36,1.18
			c0.31,0.5,0.47,1.08,0.47,1.74c0,1.26-0.65,2.17-1.96,2.72c0.94,0.18,1.69,0.56,2.24,1.16c0.56,0.6,0.83,1.31,0.83,2.14
			c0,0.66-0.17,1.24-0.51,1.76c-0.34,0.52-0.83,0.94-1.49,1.26C538.04,260.04,537.22,260.21,536.24,260.21z M535.31,248.98h-1.59
			v3.86h1.23c0.98,0,1.68-0.19,2.09-0.56c0.41-0.38,0.62-0.86,0.62-1.46C537.67,249.6,536.88,248.98,535.31,248.98z M535.45,254.49
			h-1.72v4.08h1.81c1.01,0,1.69-0.08,2.05-0.23c0.36-0.16,0.65-0.4,0.87-0.73c0.22-0.33,0.33-0.69,0.33-1.07
			c0-0.39-0.12-0.75-0.35-1.08c-0.23-0.32-0.56-0.57-0.98-0.73C537.03,254.57,536.36,254.49,535.45,254.49z"/>
		<path d="M549.56,247.16c1.99,0,3.64,0.63,4.96,1.89c1.32,1.26,1.98,2.84,1.98,4.73c0,1.9-0.66,3.47-2,4.71
			c-1.33,1.24-3.02,1.86-5.05,1.86c-1.94,0-3.55-0.62-4.84-1.86c-1.29-1.24-1.94-2.8-1.94-4.67c0-1.92,0.65-3.51,1.95-4.77
			C545.93,247.79,547.58,247.16,549.56,247.16z M549.64,248.91c-1.47,0-2.68,0.46-3.63,1.38c-0.95,0.92-1.42,2.1-1.42,3.53
			c0,1.39,0.48,2.54,1.43,3.46c0.95,0.92,2.14,1.38,3.57,1.38c1.43,0,2.63-0.47,3.59-1.41c0.96-0.94,1.44-2.11,1.44-3.51
			c0-1.36-0.48-2.51-1.44-3.44C552.21,249.37,551.04,248.91,549.64,248.91z"/>
		<path d="M568.48,247.34h1.85v7.3c0,0.99-0.07,1.73-0.22,2.24c-0.14,0.51-0.32,0.92-0.53,1.26c-0.21,0.34-0.47,0.63-0.78,0.9
			c-1.02,0.88-2.35,1.32-4,1.32c-1.68,0-3.02-0.43-4.03-1.31c-0.31-0.27-0.57-0.57-0.78-0.91c-0.21-0.34-0.39-0.74-0.52-1.23
			c-0.14-0.48-0.21-1.25-0.21-2.28v-7.28h1.85v7.3c0,1.21,0.14,2.05,0.41,2.52c0.28,0.47,0.7,0.85,1.26,1.14
			c0.57,0.29,1.23,0.43,2,0.43c1.09,0,1.98-0.28,2.67-0.86c0.36-0.31,0.63-0.67,0.78-1.09c0.16-0.42,0.24-1.13,0.24-2.15V247.34z"/>
		<path d="M572.54,247.33h10.75v1.64h-4.48v11.24h-1.85v-11.24h-4.41V247.33z"/>
		<path d="M585.8,247.34h1.84v12.86h-1.84V247.34z"/>
		<path d="M604.21,261.02l-1.85,1.8c-0.57-0.03-1.18-0.14-1.81-0.31c-0.63-0.18-1.27-0.42-1.92-0.72c-0.65-0.31-1.51-0.83-2.59-1.57
			c-1.56-0.28-2.85-1.02-3.87-2.23c-1.02-1.2-1.52-2.59-1.52-4.16c0-1.92,0.65-3.51,1.96-4.77c1.31-1.26,2.96-1.89,4.96-1.89
			c1.99,0,3.64,0.63,4.95,1.88c1.32,1.25,1.97,2.82,1.97,4.71c0,1.59-0.49,2.99-1.49,4.19c-0.99,1.2-2.28,1.96-3.85,2.27l0.49,0.18
			c1.52,0.58,2.61,0.88,3.27,0.88C603.29,261.26,603.72,261.18,604.21,261.02z M597.58,248.91c-1.45,0-2.64,0.47-3.59,1.4
			c-0.94,0.93-1.42,2.11-1.42,3.53c0,1.38,0.48,2.53,1.43,3.45c0.95,0.92,2.14,1.38,3.58,1.38c1.42,0,2.61-0.47,3.58-1.41
			c0.97-0.94,1.45-2.1,1.45-3.47c0-1.4-0.47-2.57-1.43-3.49C600.23,249.37,599.03,248.91,597.58,248.91z"/>
		<path d="M616.48,247.34h1.85v7.3c0,0.99-0.07,1.73-0.22,2.24c-0.14,0.51-0.32,0.92-0.53,1.26c-0.21,0.34-0.47,0.63-0.78,0.9
			c-1.02,0.88-2.35,1.32-4,1.32c-1.68,0-3.02-0.43-4.03-1.31c-0.31-0.27-0.57-0.57-0.78-0.91c-0.21-0.34-0.39-0.74-0.52-1.23
			c-0.14-0.48-0.21-1.25-0.21-2.28v-7.28h1.85v7.3c0,1.21,0.14,2.05,0.41,2.52c0.28,0.47,0.7,0.85,1.26,1.14
			c0.57,0.29,1.23,0.43,2,0.43c1.09,0,1.98-0.28,2.67-0.86c0.36-0.31,0.63-0.67,0.78-1.09c0.16-0.42,0.24-1.13,0.24-2.15V247.34z"/>
		<path d="M621.63,247.34h7.29v1.64h-5.45v3.92h5.27v1.65h-5.27v4h5.63v1.64h-7.47V247.34z"/>
	</g>
</g>
</svg>
